# xmcd CD database file
#
# Track frame offsets:
#	150
#	20048
#	39650
#	66521
#	88791
#	107901
#	140720
#	159503
#	188080
#	207661
#	248474
#	270350
#
# Disc length: 3825 seconds
#
# Revision: 0
# Processed by: cddbd v1.5.2PL0 Copyright (c) Steve Scherf et al.
# Submitted via: CDex 1.51
#
DISCID=af0eef0c
DTITLE=Ben Sidran - Cool Sounds From The Go Jazz Vault
DYEAR=2007
DGENRE=Jazz
TTITLE0=That's My Girl - Ben Sidran
TTITLE1=Look What I Found - David Hazeltine
TTITLE2=Theme For Ernie - David Hazeltine
TTITLE3=For All Times Sake - Bob Malach, Michel Petrucciani
TTITLE4=While We're Young - Ben Sidran
TTITLE5=On Green Dolphin Street - Bill Carrothers
TTITLE6=You Must Believe in Spring - Bob Malach, Michel Petrucciani
TTITLE7=Rain Rain - Ben Sidran
TTITLE8=Face - Ben Sidran
TTITLE9=Prisoner Of Love - Bob Rockwell
TTITLE10=Lady Sings The Blues - Ben Sidran
TTITLE11=In The Wee Small Hours - Bill Carrothers
EXTD=YEAR: 2007
EXTT0=
EXTT1=
EXTT2=
EXTT3=
EXTT4=
EXTT5=
EXTT6=
EXTT7=
EXTT8=
EXTT9=
EXTT10=
EXTT11=
PLAYORDER=
